<mxfile host="app.diagrams.net" modified="2020-12-28T04:52:31.001Z" agent="5.0 (Macintosh; Intel Mac OS X 10_15_7) AppleWebKit/537.36 (KHTML, like Gecko) Chrome/87.0.4280.88 Safari/537.36" etag="6V5klrgj5qlfyeN7OIA2" version="14.1.2" type="github">
  <diagram id="R2lEEEUBdFMjLlhIrx00" name="Page-1">
    <mxGraphModel dx="703" dy="557" grid="1" gridSize="10" guides="1" tooltips="1" connect="1" arrows="1" fold="1" page="1" pageScale="1" pageWidth="850" pageHeight="1100" math="0" shadow="0" extFonts="Permanent Marker^https://fonts.googleapis.com/css?family=Permanent+Marker">
      <root>
        <mxCell id="0" />
        <mxCell id="1" parent="0" />
        <mxCell id="0vjM8vLA1kCOzqvFPc_Z-47" value="" style="edgeStyle=entityRelationEdgeStyle;fontSize=12;html=1;endArrow=ERzeroToMany;startArrow=ERmandOne;exitX=1;exitY=0.5;exitDx=0;exitDy=0;entryX=0;entryY=0.5;entryDx=0;entryDy=0;" edge="1" parent="1" source="0vjM8vLA1kCOzqvFPc_Z-16" target="0vjM8vLA1kCOzqvFPc_Z-32">
          <mxGeometry width="100" height="100" relative="1" as="geometry">
            <mxPoint x="500" y="110" as="sourcePoint" />
            <mxPoint x="480" y="445" as="targetPoint" />
          </mxGeometry>
        </mxCell>
        <mxCell id="0vjM8vLA1kCOzqvFPc_Z-2" value="Blog" style="shape=table;startSize=30;container=1;collapsible=1;childLayout=tableLayout;fixedRows=1;rowLines=0;fontStyle=1;align=center;resizeLast=1;" vertex="1" parent="1">
          <mxGeometry x="440" y="59" width="180" height="160" as="geometry" />
        </mxCell>
        <mxCell id="0vjM8vLA1kCOzqvFPc_Z-3" value="" style="shape=partialRectangle;collapsible=0;dropTarget=0;pointerEvents=0;fillColor=none;top=0;left=0;bottom=1;right=0;points=[[0,0.5],[1,0.5]];portConstraint=eastwest;" vertex="1" parent="0vjM8vLA1kCOzqvFPc_Z-2">
          <mxGeometry y="30" width="180" height="30" as="geometry" />
        </mxCell>
        <mxCell id="0vjM8vLA1kCOzqvFPc_Z-4" value="PK" style="shape=partialRectangle;connectable=0;fillColor=none;top=0;left=0;bottom=0;right=0;fontStyle=1;overflow=hidden;" vertex="1" parent="0vjM8vLA1kCOzqvFPc_Z-3">
          <mxGeometry width="30" height="30" as="geometry" />
        </mxCell>
        <mxCell id="0vjM8vLA1kCOzqvFPc_Z-5" value="UniqueID" style="shape=partialRectangle;connectable=0;fillColor=none;top=0;left=0;bottom=0;right=0;align=left;spacingLeft=6;fontStyle=5;overflow=hidden;" vertex="1" parent="0vjM8vLA1kCOzqvFPc_Z-3">
          <mxGeometry x="30" width="150" height="30" as="geometry" />
        </mxCell>
        <mxCell id="0vjM8vLA1kCOzqvFPc_Z-6" value="" style="shape=partialRectangle;collapsible=0;dropTarget=0;pointerEvents=0;fillColor=none;top=0;left=0;bottom=0;right=0;points=[[0,0.5],[1,0.5]];portConstraint=eastwest;" vertex="1" parent="0vjM8vLA1kCOzqvFPc_Z-2">
          <mxGeometry y="60" width="180" height="30" as="geometry" />
        </mxCell>
        <mxCell id="0vjM8vLA1kCOzqvFPc_Z-7" value="" style="shape=partialRectangle;connectable=0;fillColor=none;top=0;left=0;bottom=0;right=0;editable=1;overflow=hidden;" vertex="1" parent="0vjM8vLA1kCOzqvFPc_Z-6">
          <mxGeometry width="30" height="30" as="geometry" />
        </mxCell>
        <mxCell id="0vjM8vLA1kCOzqvFPc_Z-8" value="titie" style="shape=partialRectangle;connectable=0;fillColor=none;top=0;left=0;bottom=0;right=0;align=left;spacingLeft=6;overflow=hidden;" vertex="1" parent="0vjM8vLA1kCOzqvFPc_Z-6">
          <mxGeometry x="30" width="150" height="30" as="geometry" />
        </mxCell>
        <mxCell id="0vjM8vLA1kCOzqvFPc_Z-9" value="" style="shape=partialRectangle;collapsible=0;dropTarget=0;pointerEvents=0;fillColor=none;top=0;left=0;bottom=0;right=0;points=[[0,0.5],[1,0.5]];portConstraint=eastwest;" vertex="1" parent="0vjM8vLA1kCOzqvFPc_Z-2">
          <mxGeometry y="90" width="180" height="30" as="geometry" />
        </mxCell>
        <mxCell id="0vjM8vLA1kCOzqvFPc_Z-10" value="" style="shape=partialRectangle;connectable=0;fillColor=none;top=0;left=0;bottom=0;right=0;editable=1;overflow=hidden;" vertex="1" parent="0vjM8vLA1kCOzqvFPc_Z-9">
          <mxGeometry width="30" height="30" as="geometry" />
        </mxCell>
        <mxCell id="0vjM8vLA1kCOzqvFPc_Z-11" value="content" style="shape=partialRectangle;connectable=0;fillColor=none;top=0;left=0;bottom=0;right=0;align=left;spacingLeft=6;overflow=hidden;" vertex="1" parent="0vjM8vLA1kCOzqvFPc_Z-9">
          <mxGeometry x="30" width="150" height="30" as="geometry" />
        </mxCell>
        <mxCell id="0vjM8vLA1kCOzqvFPc_Z-12" value="" style="shape=partialRectangle;collapsible=0;dropTarget=0;pointerEvents=0;fillColor=none;top=0;left=0;bottom=0;right=0;points=[[0,0.5],[1,0.5]];portConstraint=eastwest;" vertex="1" parent="0vjM8vLA1kCOzqvFPc_Z-2">
          <mxGeometry y="120" width="180" height="30" as="geometry" />
        </mxCell>
        <mxCell id="0vjM8vLA1kCOzqvFPc_Z-13" value="" style="shape=partialRectangle;connectable=0;fillColor=none;top=0;left=0;bottom=0;right=0;editable=1;overflow=hidden;" vertex="1" parent="0vjM8vLA1kCOzqvFPc_Z-12">
          <mxGeometry width="30" height="30" as="geometry" />
        </mxCell>
        <mxCell id="0vjM8vLA1kCOzqvFPc_Z-14" value="author" style="shape=partialRectangle;connectable=0;fillColor=none;top=0;left=0;bottom=0;right=0;align=left;spacingLeft=6;overflow=hidden;" vertex="1" parent="0vjM8vLA1kCOzqvFPc_Z-12">
          <mxGeometry x="30" width="150" height="30" as="geometry" />
        </mxCell>
        <mxCell id="0vjM8vLA1kCOzqvFPc_Z-15" value="User" style="shape=table;startSize=30;container=1;collapsible=1;childLayout=tableLayout;fixedRows=1;rowLines=0;fontStyle=1;align=center;resizeLast=1;" vertex="1" parent="1">
          <mxGeometry x="40" y="59" width="180" height="160" as="geometry" />
        </mxCell>
        <mxCell id="0vjM8vLA1kCOzqvFPc_Z-16" value="" style="shape=partialRectangle;collapsible=0;dropTarget=0;pointerEvents=0;fillColor=none;top=0;left=0;bottom=1;right=0;points=[[0,0.5],[1,0.5]];portConstraint=eastwest;" vertex="1" parent="0vjM8vLA1kCOzqvFPc_Z-15">
          <mxGeometry y="30" width="180" height="30" as="geometry" />
        </mxCell>
        <mxCell id="0vjM8vLA1kCOzqvFPc_Z-17" value="PK" style="shape=partialRectangle;connectable=0;fillColor=none;top=0;left=0;bottom=0;right=0;fontStyle=1;overflow=hidden;" vertex="1" parent="0vjM8vLA1kCOzqvFPc_Z-16">
          <mxGeometry width="30" height="30" as="geometry" />
        </mxCell>
        <mxCell id="0vjM8vLA1kCOzqvFPc_Z-18" value="UniqueID" style="shape=partialRectangle;connectable=0;fillColor=none;top=0;left=0;bottom=0;right=0;align=left;spacingLeft=6;fontStyle=5;overflow=hidden;" vertex="1" parent="0vjM8vLA1kCOzqvFPc_Z-16">
          <mxGeometry x="30" width="150" height="30" as="geometry" />
        </mxCell>
        <mxCell id="0vjM8vLA1kCOzqvFPc_Z-19" value="" style="shape=partialRectangle;collapsible=0;dropTarget=0;pointerEvents=0;fillColor=none;top=0;left=0;bottom=0;right=0;points=[[0,0.5],[1,0.5]];portConstraint=eastwest;" vertex="1" parent="0vjM8vLA1kCOzqvFPc_Z-15">
          <mxGeometry y="60" width="180" height="30" as="geometry" />
        </mxCell>
        <mxCell id="0vjM8vLA1kCOzqvFPc_Z-20" value="" style="shape=partialRectangle;connectable=0;fillColor=none;top=0;left=0;bottom=0;right=0;editable=1;overflow=hidden;" vertex="1" parent="0vjM8vLA1kCOzqvFPc_Z-19">
          <mxGeometry width="30" height="30" as="geometry" />
        </mxCell>
        <mxCell id="0vjM8vLA1kCOzqvFPc_Z-21" value="email" style="shape=partialRectangle;connectable=0;fillColor=none;top=0;left=0;bottom=0;right=0;align=left;spacingLeft=6;overflow=hidden;" vertex="1" parent="0vjM8vLA1kCOzqvFPc_Z-19">
          <mxGeometry x="30" width="150" height="30" as="geometry" />
        </mxCell>
        <mxCell id="0vjM8vLA1kCOzqvFPc_Z-22" value="" style="shape=partialRectangle;collapsible=0;dropTarget=0;pointerEvents=0;fillColor=none;top=0;left=0;bottom=0;right=0;points=[[0,0.5],[1,0.5]];portConstraint=eastwest;" vertex="1" parent="0vjM8vLA1kCOzqvFPc_Z-15">
          <mxGeometry y="90" width="180" height="30" as="geometry" />
        </mxCell>
        <mxCell id="0vjM8vLA1kCOzqvFPc_Z-23" value="" style="shape=partialRectangle;connectable=0;fillColor=none;top=0;left=0;bottom=0;right=0;editable=1;overflow=hidden;" vertex="1" parent="0vjM8vLA1kCOzqvFPc_Z-22">
          <mxGeometry width="30" height="30" as="geometry" />
        </mxCell>
        <mxCell id="0vjM8vLA1kCOzqvFPc_Z-24" value="name" style="shape=partialRectangle;connectable=0;fillColor=none;top=0;left=0;bottom=0;right=0;align=left;spacingLeft=6;overflow=hidden;" vertex="1" parent="0vjM8vLA1kCOzqvFPc_Z-22">
          <mxGeometry x="30" width="150" height="30" as="geometry" />
        </mxCell>
        <mxCell id="0vjM8vLA1kCOzqvFPc_Z-25" value="" style="shape=partialRectangle;collapsible=0;dropTarget=0;pointerEvents=0;fillColor=none;top=0;left=0;bottom=0;right=0;points=[[0,0.5],[1,0.5]];portConstraint=eastwest;" vertex="1" parent="0vjM8vLA1kCOzqvFPc_Z-15">
          <mxGeometry y="120" width="180" height="30" as="geometry" />
        </mxCell>
        <mxCell id="0vjM8vLA1kCOzqvFPc_Z-26" value="" style="shape=partialRectangle;connectable=0;fillColor=none;top=0;left=0;bottom=0;right=0;editable=1;overflow=hidden;" vertex="1" parent="0vjM8vLA1kCOzqvFPc_Z-25">
          <mxGeometry width="30" height="30" as="geometry" />
        </mxCell>
        <mxCell id="0vjM8vLA1kCOzqvFPc_Z-27" value="password" style="shape=partialRectangle;connectable=0;fillColor=none;top=0;left=0;bottom=0;right=0;align=left;spacingLeft=6;overflow=hidden;" vertex="1" parent="0vjM8vLA1kCOzqvFPc_Z-25">
          <mxGeometry x="30" width="150" height="30" as="geometry" />
        </mxCell>
        <mxCell id="0vjM8vLA1kCOzqvFPc_Z-28" value="Review" style="shape=table;startSize=30;container=1;collapsible=1;childLayout=tableLayout;fixedRows=1;rowLines=0;fontStyle=1;align=center;resizeLast=1;" vertex="1" parent="1">
          <mxGeometry x="450" y="310" width="180" height="160" as="geometry">
            <mxRectangle x="360" y="350" width="60" height="30" as="alternateBounds" />
          </mxGeometry>
        </mxCell>
        <mxCell id="0vjM8vLA1kCOzqvFPc_Z-29" value="" style="shape=partialRectangle;collapsible=0;dropTarget=0;pointerEvents=0;fillColor=none;top=0;left=0;bottom=1;right=0;points=[[0,0.5],[1,0.5]];portConstraint=eastwest;" vertex="1" parent="0vjM8vLA1kCOzqvFPc_Z-28">
          <mxGeometry y="30" width="180" height="30" as="geometry" />
        </mxCell>
        <mxCell id="0vjM8vLA1kCOzqvFPc_Z-30" value="PK" style="shape=partialRectangle;connectable=0;fillColor=none;top=0;left=0;bottom=0;right=0;fontStyle=1;overflow=hidden;" vertex="1" parent="0vjM8vLA1kCOzqvFPc_Z-29">
          <mxGeometry width="30" height="30" as="geometry" />
        </mxCell>
        <mxCell id="0vjM8vLA1kCOzqvFPc_Z-31" value="UniqueID" style="shape=partialRectangle;connectable=0;fillColor=none;top=0;left=0;bottom=0;right=0;align=left;spacingLeft=6;fontStyle=5;overflow=hidden;" vertex="1" parent="0vjM8vLA1kCOzqvFPc_Z-29">
          <mxGeometry x="30" width="150" height="30" as="geometry" />
        </mxCell>
        <mxCell id="0vjM8vLA1kCOzqvFPc_Z-32" value="" style="shape=partialRectangle;collapsible=0;dropTarget=0;pointerEvents=0;fillColor=none;top=0;left=0;bottom=0;right=0;points=[[0,0.5],[1,0.5]];portConstraint=eastwest;" vertex="1" parent="0vjM8vLA1kCOzqvFPc_Z-28">
          <mxGeometry y="60" width="180" height="30" as="geometry" />
        </mxCell>
        <mxCell id="0vjM8vLA1kCOzqvFPc_Z-33" value="" style="shape=partialRectangle;connectable=0;fillColor=none;top=0;left=0;bottom=0;right=0;editable=1;overflow=hidden;" vertex="1" parent="0vjM8vLA1kCOzqvFPc_Z-32">
          <mxGeometry width="30" height="30" as="geometry" />
        </mxCell>
        <mxCell id="0vjM8vLA1kCOzqvFPc_Z-34" value="user" style="shape=partialRectangle;connectable=0;fillColor=none;top=0;left=0;bottom=0;right=0;align=left;spacingLeft=6;overflow=hidden;" vertex="1" parent="0vjM8vLA1kCOzqvFPc_Z-32">
          <mxGeometry x="30" width="150" height="30" as="geometry" />
        </mxCell>
        <mxCell id="0vjM8vLA1kCOzqvFPc_Z-35" value="" style="shape=partialRectangle;collapsible=0;dropTarget=0;pointerEvents=0;fillColor=none;top=0;left=0;bottom=0;right=0;points=[[0,0.5],[1,0.5]];portConstraint=eastwest;" vertex="1" parent="0vjM8vLA1kCOzqvFPc_Z-28">
          <mxGeometry y="90" width="180" height="30" as="geometry" />
        </mxCell>
        <mxCell id="0vjM8vLA1kCOzqvFPc_Z-36" value="" style="shape=partialRectangle;connectable=0;fillColor=none;top=0;left=0;bottom=0;right=0;editable=1;overflow=hidden;" vertex="1" parent="0vjM8vLA1kCOzqvFPc_Z-35">
          <mxGeometry width="30" height="30" as="geometry" />
        </mxCell>
        <mxCell id="0vjM8vLA1kCOzqvFPc_Z-37" value="blog" style="shape=partialRectangle;connectable=0;fillColor=none;top=0;left=0;bottom=0;right=0;align=left;spacingLeft=6;overflow=hidden;" vertex="1" parent="0vjM8vLA1kCOzqvFPc_Z-35">
          <mxGeometry x="30" width="150" height="30" as="geometry" />
        </mxCell>
        <mxCell id="0vjM8vLA1kCOzqvFPc_Z-38" value="" style="shape=partialRectangle;collapsible=0;dropTarget=0;pointerEvents=0;fillColor=none;top=0;left=0;bottom=0;right=0;points=[[0,0.5],[1,0.5]];portConstraint=eastwest;" vertex="1" parent="0vjM8vLA1kCOzqvFPc_Z-28">
          <mxGeometry y="120" width="180" height="30" as="geometry" />
        </mxCell>
        <mxCell id="0vjM8vLA1kCOzqvFPc_Z-39" value="" style="shape=partialRectangle;connectable=0;fillColor=none;top=0;left=0;bottom=0;right=0;editable=1;overflow=hidden;" vertex="1" parent="0vjM8vLA1kCOzqvFPc_Z-38">
          <mxGeometry width="30" height="30" as="geometry" />
        </mxCell>
        <mxCell id="0vjM8vLA1kCOzqvFPc_Z-40" value="content" style="shape=partialRectangle;connectable=0;fillColor=none;top=0;left=0;bottom=0;right=0;align=left;spacingLeft=6;overflow=hidden;" vertex="1" parent="0vjM8vLA1kCOzqvFPc_Z-38">
          <mxGeometry x="30" width="150" height="30" as="geometry" />
        </mxCell>
        <mxCell id="0vjM8vLA1kCOzqvFPc_Z-41" value="" style="edgeStyle=entityRelationEdgeStyle;fontSize=12;html=1;endArrow=ERzeroToMany;startArrow=ERmandOne;exitX=1;exitY=0.5;exitDx=0;exitDy=0;" edge="1" parent="1" source="0vjM8vLA1kCOzqvFPc_Z-16" target="0vjM8vLA1kCOzqvFPc_Z-12">
          <mxGeometry width="100" height="100" relative="1" as="geometry">
            <mxPoint x="360" y="180" as="sourcePoint" />
            <mxPoint x="460" y="80" as="targetPoint" />
          </mxGeometry>
        </mxCell>
        <mxCell id="0vjM8vLA1kCOzqvFPc_Z-53" value="Friendship" style="shape=table;startSize=30;container=1;collapsible=1;childLayout=tableLayout;fixedRows=1;rowLines=0;fontStyle=1;align=center;resizeLast=1;" vertex="1" parent="1">
          <mxGeometry x="20" y="340" width="180" height="160" as="geometry" />
        </mxCell>
        <mxCell id="0vjM8vLA1kCOzqvFPc_Z-54" value="" style="shape=partialRectangle;collapsible=0;dropTarget=0;pointerEvents=0;fillColor=none;top=0;left=0;bottom=1;right=0;points=[[0,0.5],[1,0.5]];portConstraint=eastwest;" vertex="1" parent="0vjM8vLA1kCOzqvFPc_Z-53">
          <mxGeometry y="30" width="180" height="30" as="geometry" />
        </mxCell>
        <mxCell id="0vjM8vLA1kCOzqvFPc_Z-55" value="PK" style="shape=partialRectangle;connectable=0;fillColor=none;top=0;left=0;bottom=0;right=0;fontStyle=1;overflow=hidden;" vertex="1" parent="0vjM8vLA1kCOzqvFPc_Z-54">
          <mxGeometry width="30" height="30" as="geometry" />
        </mxCell>
        <mxCell id="0vjM8vLA1kCOzqvFPc_Z-56" value="UniqueID" style="shape=partialRectangle;connectable=0;fillColor=none;top=0;left=0;bottom=0;right=0;align=left;spacingLeft=6;fontStyle=5;overflow=hidden;" vertex="1" parent="0vjM8vLA1kCOzqvFPc_Z-54">
          <mxGeometry x="30" width="150" height="30" as="geometry" />
        </mxCell>
        <mxCell id="0vjM8vLA1kCOzqvFPc_Z-57" value="" style="shape=partialRectangle;collapsible=0;dropTarget=0;pointerEvents=0;fillColor=none;top=0;left=0;bottom=0;right=0;points=[[0,0.5],[1,0.5]];portConstraint=eastwest;" vertex="1" parent="0vjM8vLA1kCOzqvFPc_Z-53">
          <mxGeometry y="60" width="180" height="30" as="geometry" />
        </mxCell>
        <mxCell id="0vjM8vLA1kCOzqvFPc_Z-58" value="" style="shape=partialRectangle;connectable=0;fillColor=none;top=0;left=0;bottom=0;right=0;editable=1;overflow=hidden;" vertex="1" parent="0vjM8vLA1kCOzqvFPc_Z-57">
          <mxGeometry width="30" height="30" as="geometry" />
        </mxCell>
        <mxCell id="0vjM8vLA1kCOzqvFPc_Z-59" value="user" style="shape=partialRectangle;connectable=0;fillColor=none;top=0;left=0;bottom=0;right=0;align=left;spacingLeft=6;overflow=hidden;" vertex="1" parent="0vjM8vLA1kCOzqvFPc_Z-57">
          <mxGeometry x="30" width="150" height="30" as="geometry" />
        </mxCell>
        <mxCell id="0vjM8vLA1kCOzqvFPc_Z-60" value="" style="shape=partialRectangle;collapsible=0;dropTarget=0;pointerEvents=0;fillColor=none;top=0;left=0;bottom=0;right=0;points=[[0,0.5],[1,0.5]];portConstraint=eastwest;" vertex="1" parent="0vjM8vLA1kCOzqvFPc_Z-53">
          <mxGeometry y="90" width="180" height="30" as="geometry" />
        </mxCell>
        <mxCell id="0vjM8vLA1kCOzqvFPc_Z-61" value="" style="shape=partialRectangle;connectable=0;fillColor=none;top=0;left=0;bottom=0;right=0;editable=1;overflow=hidden;" vertex="1" parent="0vjM8vLA1kCOzqvFPc_Z-60">
          <mxGeometry width="30" height="30" as="geometry" />
        </mxCell>
        <mxCell id="0vjM8vLA1kCOzqvFPc_Z-62" value="blog" style="shape=partialRectangle;connectable=0;fillColor=none;top=0;left=0;bottom=0;right=0;align=left;spacingLeft=6;overflow=hidden;" vertex="1" parent="0vjM8vLA1kCOzqvFPc_Z-60">
          <mxGeometry x="30" width="150" height="30" as="geometry" />
        </mxCell>
        <mxCell id="0vjM8vLA1kCOzqvFPc_Z-63" value="" style="shape=partialRectangle;collapsible=0;dropTarget=0;pointerEvents=0;fillColor=none;top=0;left=0;bottom=0;right=0;points=[[0,0.5],[1,0.5]];portConstraint=eastwest;" vertex="1" parent="0vjM8vLA1kCOzqvFPc_Z-53">
          <mxGeometry y="120" width="180" height="30" as="geometry" />
        </mxCell>
        <mxCell id="0vjM8vLA1kCOzqvFPc_Z-64" value="" style="shape=partialRectangle;connectable=0;fillColor=none;top=0;left=0;bottom=0;right=0;editable=1;overflow=hidden;" vertex="1" parent="0vjM8vLA1kCOzqvFPc_Z-63">
          <mxGeometry width="30" height="30" as="geometry" />
        </mxCell>
        <mxCell id="0vjM8vLA1kCOzqvFPc_Z-65" value="content" style="shape=partialRectangle;connectable=0;fillColor=none;top=0;left=0;bottom=0;right=0;align=left;spacingLeft=6;overflow=hidden;" vertex="1" parent="0vjM8vLA1kCOzqvFPc_Z-63">
          <mxGeometry x="30" width="150" height="30" as="geometry" />
        </mxCell>
      </root>
    </mxGraphModel>
  </diagram>
</mxfile>
